<svg width="31" height="31" viewBox="0 0 31 31" fill="none" xmlns="http://www.w3.org/2000/svg">
<path d="M15.5 31C24.0625 31 31 24.0625 31 15.5C31 6.9375 24.0625 0 15.5 0C6.9375 0 0 6.9375 0 15.5C0 24.0625 6.9375 31 15.5 31ZM15.5 3C22.4062 3 28 8.59375 28 15.5C28 22.4062 22.4062 28 15.5 28C8.59375 28 3 22.4062 3 15.5C3 8.59375 8.59375 3 15.5 3ZM16.75 23.5H14.25C13.8375 23.5 13.5 23.1625 13.5 22.75V15.5H9.3125C8.64375 15.5 8.3125 14.6938 8.78125 14.2188L14.9688 8.03125C15.2625 7.7375 15.7375 7.7375 16.0312 8.03125L22.2188 14.2188C22.6938 14.6938 22.3563 15.5 21.6875 15.5H17.5V22.75C17.5 23.1625 17.1625 23.5 16.75 23.5Z" fill="white"/>
</svg>
