<svg width="18" height="14" viewBox="0 0 18 14" fill="none" xmlns="http://www.w3.org/2000/svg">
<path d="M17.659 4.45781C17.7961 4.34883 18 4.45078 18 4.62305V11.8125C18 12.7441 17.2441 13.5 16.3125 13.5H1.6875C0.755859 13.5 0 12.7441 0 11.8125V4.62656C0 4.45078 0.200391 4.35234 0.341016 4.46133C1.12852 5.07305 2.17266 5.85 5.75859 8.45508C6.50039 8.99648 7.75195 10.1355 9 10.1285C10.2551 10.1391 11.5312 8.97539 12.2449 8.45508C15.8309 5.85 16.8715 5.06953 17.659 4.45781ZM9 9C9.81563 9.01406 10.9898 7.97344 11.5805 7.54453C16.2457 4.15898 16.6008 3.86367 17.6766 3.01992C17.8805 2.86172 18 2.61563 18 2.35547V1.6875C18 0.755859 17.2441 0 16.3125 0H1.6875C0.755859 0 0 0.755859 0 1.6875V2.35547C0 2.61563 0.119531 2.8582 0.323437 3.01992C1.39922 3.86016 1.7543 4.15898 6.41953 7.54453C7.01016 7.97344 8.18437 9.01406 9 9Z" fill="#050A30"/>
</svg>
