<svg  width="19" height="17" viewBox="0 0 19 17" fill="none" xmlns="http://www.w3.org/2000/svg">
<path d="M9.35 0C7.09074 0 5.25938 1.87299 5.25938 4.18359C5.25938 6.0516 7.93289 9.45625 8.95717 10.6921C9.16462 10.9424 9.5357 10.9424 9.74283 10.6921C10.7671 9.45625 13.4406 6.0516 13.4406 4.18359C13.4406 1.87299 11.6093 0 9.35 0ZM9.35 5.57812C8.59681 5.57812 7.98646 4.95391 7.98646 4.18359C7.98646 3.41328 8.59681 2.78906 9.35 2.78906C10.1032 2.78906 10.7135 3.41328 10.7135 4.18359C10.7135 4.95391 10.1032 5.57812 9.35 5.57812ZM0.653201 7.17021C0.460415 7.24908 0.295152 7.3852 0.178724 7.56103C0.0622972 7.73686 4.61724e-05 7.94433 0 8.15668L0 16.4681C0 16.8439 0.371078 17.1009 0.712288 16.9615L5.19444 14.875V7.13602C4.90745 6.60543 4.67273 6.08879 4.50456 5.59473L0.653201 7.17021ZM9.35 11.9422C8.89321 11.9422 8.4611 11.737 8.16469 11.379C7.52643 10.6087 6.84758 9.7315 6.23333 8.8317V14.8747L12.4667 16.9997V8.83203C11.8524 9.7315 11.1739 10.6091 10.5353 11.3794C10.2389 11.737 9.80679 11.9422 9.35 11.9422ZM17.9877 5.35102L13.5056 7.4375V17L18.0468 15.1423C18.2396 15.0635 18.4049 14.9273 18.5213 14.7515C18.6378 14.5757 18.7 14.3682 18.7 14.1558V5.84441C18.7 5.46855 18.3289 5.21156 17.9877 5.35102Z" fill="#050A30"/>
</svg>
