<svg width="18" height="18" viewBox="0 0 18 18" fill="none" xmlns="http://www.w3.org/2000/svg">
<path d="M17.0009 12.3661L13.1727 10.7255C13.0092 10.6558 12.8275 10.6411 12.6548 10.6836C12.4822 10.7262 12.3281 10.8236 12.2157 10.9613L10.5204 13.0326C7.85967 11.7781 5.71843 9.63691 4.46395 6.97623L6.53527 5.28089C6.67325 5.16867 6.77091 5.01454 6.81347 4.84186C6.85602 4.66917 6.84115 4.48732 6.77112 4.32384L5.13046 0.495646C5.0536 0.319415 4.91765 0.175529 4.74605 0.0887976C4.57446 0.00206625 4.37799 -0.0220738 4.1905 0.0205401L0.635754 0.840867C0.454998 0.882607 0.293727 0.984383 0.178262 1.12958C0.0627978 1.27478 -4.16388e-05 1.45483 2.07003e-08 1.64034C2.07003e-08 10.4076 7.10608 17.5 15.8597 17.5C16.0452 17.5001 16.2254 17.4373 16.3706 17.3218C16.5159 17.2064 16.6177 17.0451 16.6595 16.8642L17.4798 13.3095C17.5221 13.1211 17.4975 12.9238 17.4101 12.7517C17.3227 12.5795 17.178 12.4431 17.0009 12.3661Z" fill="#050A30"/>
</svg>
